<svg xmlns="http://www.w3.org/2000/svg" width="140" height="36" viewBox="0 0 140 36" fill="none"><g clip-path="url(#clip0_8_681)"><path d="M43.082 18.1566C43.082 20.2129 43.7385 21.8527 45.0776 23.102C46.4168 24.3253 48.1498 24.95 50.3292 24.95C52.5611 24.95 54.4779 24.1431 56.0272 22.5554L53.7427 20.3951C52.8237 21.254 51.7471 21.6705 50.513 21.6705C48.4386 21.6705 47.0732 20.6554 46.9944 19.0936H56.9987C57.0249 18.7031 57.0512 18.2867 57.0512 17.8442C57.0512 15.9442 56.4211 14.3825 55.1607 13.107C53.9003 11.8316 52.2722 11.1809 50.2504 11.1809C48.1761 11.1809 46.443 11.8056 45.1038 13.081C43.7648 14.3303 43.082 15.9962 43.082 18.0524V18.1566ZM47.047 16.5688C47.152 15.3455 48.5437 14.3825 50.2504 14.3825C51.8259 14.3825 53.1125 15.3455 53.1125 16.5688H47.047Z" fill="#12124C"></path><path d="M65.0527 24.6372L70.7243 11.5188H66.7595L63.3196 19.848L59.8536 11.5188H55.8887L61.5603 24.6372H65.0527Z" fill="#12124C"></path><path d="M76.8464 11.1282C74.7983 11.1282 73.0652 11.8049 71.6211 13.1584C70.2031 14.4859 69.4941 16.1257 69.4941 18.0778C69.4941 20.03 70.2031 21.6698 71.6211 23.0233C73.0652 24.3507 74.7983 25.0274 76.8464 25.0274C78.8682 25.0274 80.6013 24.3507 82.0454 23.0233C83.4896 21.6698 84.1986 20.03 84.1986 18.0778C84.1986 16.1257 83.4896 14.4859 82.0454 13.1584C80.6013 11.8049 78.8682 11.1282 76.8464 11.1282ZM73.4065 18.0778C73.4065 17.1148 73.748 16.3079 74.4044 15.6572C75.0608 14.9804 75.8748 14.6421 76.8464 14.6421C77.8179 14.6421 78.6319 14.9804 79.2883 15.6572C79.9448 16.3079 80.2862 17.1148 80.2862 18.0778C80.2862 19.0408 79.9448 19.8478 79.2883 20.5245C78.6319 21.1753 77.8179 21.5136 76.8464 21.5136C75.8748 21.5136 75.0608 21.1753 74.4044 20.5245C73.748 19.8738 73.4065 19.0408 73.4065 18.0778Z" fill="#12124C"></path><path d="M84.3613 21.7999C84.8865 23.8041 86.8296 24.9493 89.3504 24.9493C92.5012 24.9493 94.2081 23.2315 94.2081 21.1492C94.2081 19.1449 92.9214 17.9997 90.1906 16.9586C88.195 16.2038 87.3022 15.6572 87.3022 14.59C87.3022 13.5228 88.1425 12.8981 89.3766 12.8981C90.4007 12.8981 91.1358 13.3406 91.6085 14.1995L93.184 13.3926C92.4225 11.883 91.1359 11.1282 89.3504 11.1282C87.0133 11.1282 85.3592 12.5858 85.3592 14.59C85.3592 16.4901 86.5407 17.4791 88.9565 18.4162C90.1906 18.9107 91.0571 19.3271 91.5297 19.6655C92.0286 20.004 92.2649 20.4985 92.2649 21.1492C92.2649 22.1643 91.5297 23.1534 89.3504 23.1534C87.5385 23.1534 86.3569 22.2945 86.0156 21.1752L84.3613 21.7999Z" fill="#12124C"></path><path d="M96.0493 20.9673C96.0493 23.6742 97.2308 25.0277 99.5936 25.0277C100.277 25.0277 100.776 24.9496 101.065 24.8195V23.1537C100.723 23.2057 100.329 23.2318 99.8302 23.2318C98.5437 23.2318 97.9923 22.6331 97.9923 20.9673V13.3148H101.065V11.5189H97.9923V6.49536H96.0493V11.5189H94.5V13.3148H96.0493V20.9673Z" fill="#12124C"></path><path d="M108.097 11.1282C106.232 11.1282 104.63 11.8049 103.344 13.1323C102.057 14.4599 101.4 16.0997 101.4 18.0778C101.4 20.056 102.057 21.7218 103.344 23.0493C104.63 24.3767 106.232 25.0274 108.097 25.0274C110.302 25.0274 111.903 24.2466 112.901 22.7109C112.98 23.5698 113.295 24.1945 113.794 24.5849C114.135 24.8192 114.609 24.9493 115.185 24.9493C115.684 24.9493 116.105 24.8713 116.42 24.7411V23.2835C116.184 23.3096 115.948 23.3356 115.738 23.3356C115.002 23.3356 114.74 22.8411 114.74 21.6958V11.5186H112.797V13.4707C112.034 12.1433 110.486 11.1282 108.097 11.1282ZM108.097 23.2315C106.731 23.2315 105.601 22.7369 104.683 21.7739C103.79 20.7848 103.344 19.5614 103.344 18.0778C103.344 16.5942 103.79 15.3709 104.683 14.4078C105.601 13.4187 106.731 12.9241 108.097 12.9241C109.514 12.9241 110.696 13.4187 111.614 14.4078C112.56 15.3709 113.033 16.5942 113.033 18.0778C113.033 19.5614 112.56 20.7848 111.614 21.7739C110.696 22.7369 109.514 23.2315 108.097 23.2315Z" fill="#12124C"></path><path d="M123.389 11.1282C121.419 11.1282 119.766 11.8049 118.4 13.1323C117.035 14.4599 116.352 16.0997 116.352 18.0778C116.352 20.056 117.035 21.7218 118.4 23.0493C119.766 24.3767 121.419 25.0274 123.389 25.0274C125.437 25.0274 127.118 24.3767 128.404 23.0493L127.222 21.6958C126.225 22.7109 124.938 23.2315 123.389 23.2315C121.918 23.2315 120.71 22.7369 119.739 21.7739C118.768 20.7848 118.295 19.5614 118.295 18.0778C118.295 16.5942 118.768 15.3709 119.739 14.4078C120.71 13.4187 121.918 12.9241 123.389 12.9241C124.938 12.9241 126.225 13.4447 127.222 14.4599L128.404 13.1063C127.118 11.7789 125.437 11.1282 123.389 11.1282Z" fill="#12124C"></path><path d="M131.386 24.6373V20.5509L133.04 18.6507L137.688 24.6373H139.999L134.274 17.2712L139.29 11.5189H137.058L131.386 18V6.49536H129.443V24.6373H131.386Z" fill="#12124C"></path><path d="M17.4045 31.327C24.7336 31.327 30.6749 25.4376 30.6749 18.1726C30.6749 15.8492 30.0673 13.6665 29.0009 11.7721L32.9012 10.3088C34.1215 12.667 34.81 15.34 34.81 18.1726C34.81 27.7014 27.0172 35.4261 17.4045 35.4261C11.6664 35.4261 6.57695 32.6737 3.40625 28.4282L7.69028 26.8209L7.68959 26.8199L24.7404 20.4108L24.7403 25.0186L11.1755 29.7909C13.033 30.7714 15.1532 31.327 17.4045 31.327Z" fill="#5050FF"></path><path d="M0 18.1727C0 21.024 0.69771 23.7137 1.93312 26.0832L5.82508 24.6015C4.74882 22.7005 4.1351 20.5077 4.1351 18.1727C4.1351 10.9077 10.0765 5.01819 17.4055 5.01819C19.6573 5.01819 21.7781 5.57414 23.6358 6.55513L10.3532 11.5905C10.1616 11.6631 10.0349 11.8466 10.0349 12.0515V15.2077C10.0349 15.5511 10.3774 15.7893 10.6994 15.6699L27.3706 9.4855L27.3941 9.51195L27.3763 9.48569L31.4242 7.94457C28.255 3.68344 23.1559 0.919189 17.4055 0.919189C7.7927 0.919189 0 8.64386 0 18.1727Z" fill="#5050FF"></path><path d="M24.7071 14.7254C24.7071 14.0355 24.0167 13.5589 23.3716 13.8034L10.6717 18.618C10.2885 18.7632 10.0353 19.1302 10.0352 19.5399V21.6493C10.0352 22.3284 10.7058 22.8043 11.3467 22.58L24.0467 18.1359C24.4421 17.9976 24.707 17.6243 24.707 17.2054L24.7071 14.7254Z" fill="#5050FF"></path></g><defs><clipPath id="clip0_8_681"><rect width="140" height="34.507" fill="white" transform="translate(0 0.919189)"></rect></clipPath></defs></svg>