<svg version="1.2" xmlns="http://www.w3.org/2000/svg" viewBox="0 0 412 225" width="412" height="225">
	<title>logo_branco_tagline-svg</title>
	<defs>
		<linearGradient id="g1" x2="1" gradientUnits="userSpaceOnUse" gradientTransform="matrix(0,-131.29,72.224,0,125.49,131.29)">
			<stop offset=".3" stop-color="#51b8e9"/>
			<stop offset=".8" stop-color="#ffffff"/>
		</linearGradient>
		<linearGradient id="g2" x2="1" gradientUnits="userSpaceOnUse" gradientTransform="matrix(0,-115.08,67.724,0,189.92,115.08)">
			<stop offset=".15" stop-color="#ffffff"/>
			<stop offset=".7" stop-color="#7e67aa"/>
		</linearGradient>
	</defs>
	<style>
		.s0 { fill: #ffffff } 
		.s1 { fill: url(#g1) } 
		.s2 { fill: url(#g2) } 
	</style>
	<g id="Camada_1-2">
		<g>
			<g>
				<path class="s0" d="m59.3 224.5q3.7-13.9 7.4-27.7c3.5-13.3 7.1-26.5 10.6-39.8 0.2-1 0.7-1.4 1.7-1.3 1 0.1 1.9 0 3 0 0 0.5-0.1 0.8-0.2 1.1q-4.9 18.5-9.9 37-4 15.2-8.1 30.4c0 0.1 0 0.2 0 0.3h-4.5z"/>
				<g>
					<path id="O ban" class="s0" aria-label="O ban"  d="m115.9 201.2q-2.7 0-5-1.1-2.2-1.1-3.8-2.9-1.6-1.9-2.5-4.2-0.9-2.3-0.9-4.8 0-2.5 0.9-4.8 1-2.4 2.6-4.2 1.7-1.8 3.9-2.9 2.3-1 4.9-1 2.7 0 5 1.1 2.2 1.1 3.8 3 1.6 1.8 2.5 4.1 0.9 2.3 0.9 4.8 0 2.5-0.9 4.9-0.9 2.3-2.6 4.1-1.6 1.8-3.9 2.8-2.2 1.1-4.9 1.1zm-8.1-13q0 1.8 0.6 3.5 0.5 1.7 1.6 3 1.1 1.3 2.6 2.1 1.5 0.7 3.4 0.7 1.9 0 3.4-0.7 1.5-0.8 2.5-2.2 1.1-1.3 1.6-3 0.6-1.7 0.6-3.4 0-1.8-0.6-3.4-0.6-1.7-1.6-3-1.1-1.4-2.6-2.1-1.5-0.8-3.3-0.8-2 0-3.5 0.8-1.5 0.8-2.5 2.1-1.1 1.4-1.7 3-0.5 1.7-0.5 3.4zm43.1 13.2q-2.1 0-3.9-1-1.7-1.1-2.7-2.8v3.4h-3.5v-26.3h3.9v11q1.1-1.8 2.8-2.8 1.7-1.1 4-1.1 1.8 0 3.4 0.8 1.5 0.8 2.6 2.2 1.1 1.4 1.7 3.1 0.6 1.8 0.6 3.8 0 2-0.7 3.7-0.6 1.8-1.8 3.1-1.3 1.3-2.9 2.1-1.6 0.8-3.5 0.8zm-1-3.4q1.3 0 2.4-0.5 1-0.6 1.8-1.4 0.8-0.9 1.2-2 0.4-1.2 0.4-2.4 0-1.7-0.7-3.2-0.7-1.5-1.9-2.4-1.3-0.9-2.9-0.9-1.2 0-2.3 0.6-1 0.5-1.8 1.5-0.8 0.9-1.4 2v5q0.2 0.8 0.8 1.5 0.5 0.6 1.2 1.1 0.8 0.5 1.6 0.8 0.8 0.3 1.6 0.3zm12.1-2.5q0-1.8 1-3.1 1.1-1.4 2.9-2.1 1.8-0.8 4.1-0.8 1.3 0 2.6 0.2 1.3 0.2 2.3 0.6v-1.2q0-2-1.2-3.1-1.1-1.1-3.4-1.1-1.6 0-3 0.5-1.4 0.6-2.9 1.6l-1.4-2.7q1.9-1.2 3.8-1.8 1.9-0.7 4-0.7 3.7 0 5.9 2.1 2.2 1.9 2.2 5.6v7q0 0.7 0.2 1 0.3 0.3 0.8 0.3v3.2q-0.5 0.1-0.9 0.1-0.5 0.1-0.8 0.1-1.2 0-1.9-0.6-0.6-0.6-0.7-1.5l-0.1-1.1q-1.3 1.6-3.2 2.5-1.9 0.9-3.8 0.9-1.9 0-3.4-0.8-1.4-0.8-2.3-2.1-0.8-1.4-0.8-3zm12 1.1q0.4-0.4 0.7-0.9 0.2-0.5 0.2-0.8v-2.2q-1-0.4-2.1-0.6-1.1-0.2-2.2-0.2-2.1 0-3.5 0.9-1.3 0.9-1.3 2.4 0 0.8 0.4 1.6 0.5 0.7 1.3 1.2 0.8 0.4 2.1 0.4 1.3 0 2.5-0.5 1.2-0.5 1.9-1.3zm26.6-7.1v11.5h-4v-10.5q0-2.7-0.9-3.9-0.8-1.2-2.4-1.2-1.2 0-2.3 0.6-1.2 0.5-2.1 1.5-0.9 1-1.3 2.3v11.2h-3.9v-18.8h3.6v3.8q0.7-1.3 1.9-2.2 1.1-0.9 2.6-1.4 1.5-0.6 3.2-0.6 1.6 0 2.7 0.7 1.1 0.6 1.8 1.7 0.6 1 0.8 2.4 0.3 1.4 0.3 2.9z"/>
					<path id="c" class="s0" aria-label="c"  d="m213.6 201.4q-2.1 0-3.9-0.8-1.8-0.8-3.1-2.2-1.3-1.3-2-3.1-0.7-1.8-0.7-3.7 0-2.7 1.2-4.9 1.2-2.2 3.4-3.5 2.2-1.4 5.1-1.4 2.9 0 5.1 1.3 2.1 1.3 3.1 3.4l-3.8 1.3q-0.7-1.2-1.9-1.9-1.1-0.7-2.5-0.7-1.6 0-2.9 0.9-1.3 0.8-2 2.2-0.7 1.4-0.7 3.3 0 1.8 0.7 3.2 0.8 1.5 2 2.3 1.3 0.9 2.9 0.9 1 0 1.9-0.3 0.9-0.4 1.6-1 0.7-0.6 1-1.3l3.9 1.1q-0.6 1.4-1.9 2.5-1.2 1.1-2.8 1.7-1.6 0.7-3.7 0.7z"/>
					<path id="o do f" class="s0" aria-label="o do f"  d="m233.5 201.4q-2.2 0-4-0.8-1.7-0.8-3-2.2-1.3-1.3-2-3.1-0.7-1.7-0.7-3.7 0-2 0.7-3.7 0.7-1.8 2-3.1 1.3-1.4 3-2.2 1.8-0.8 4-0.8 2.2 0 4 0.8 1.8 0.8 3 2.2 1.3 1.3 2 3.1 0.7 1.7 0.7 3.7 0 2-0.7 3.7-0.7 1.8-2 3.1-1.2 1.4-3 2.2-1.8 0.8-4 0.8zm-5.6-9.8q0 1.8 0.8 3.3 0.7 1.4 2 2.2 1.2 0.9 2.8 0.9 1.6 0 2.8-0.9 1.3-0.8 2.1-2.3 0.7-1.4 0.7-3.2 0-1.8-0.7-3.2-0.8-1.5-2.1-2.3-1.2-0.9-2.8-0.9-1.6 0-2.8 0.9-1.3 0.9-2 2.3-0.8 1.4-0.8 3.2zm26.5 0q0-2.7 1.1-4.9 1.1-2.2 3-3.5 1.9-1.4 4.4-1.4 2.2 0 3.9 1.2 1.8 1.1 2.8 2.7v-11h3.9v21.8q0 0.7 0.3 1 0.2 0.3 0.8 0.3v3.2q-1.1 0.2-1.7 0.2-1.2 0-1.9-0.7-0.8-0.6-0.8-1.5l-0.1-1.4q-1.1 1.8-2.9 2.8-1.8 1-3.8 1-1.9 0-3.6-0.8-1.6-0.8-2.8-2.1-1.2-1.4-1.9-3.2-0.7-1.7-0.7-3.7zm15.2 2.6v-4.9q-0.4-1.2-1.3-2.1-0.9-0.9-2-1.4-1.1-0.6-2.2-0.6-1.2 0-2.3 0.6-1 0.5-1.8 1.4-0.7 0.9-1.1 2.1-0.4 1.1-0.4 2.4 0 1.3 0.5 2.4 0.4 1.1 1.2 2 0.8 0.9 1.9 1.4 1 0.5 2.3 0.5 0.8 0 1.6-0.3 0.8-0.3 1.5-0.8 0.8-0.5 1.3-1.2 0.5-0.7 0.8-1.5zm17.4 7.2q-2.2 0-4-0.8-1.7-0.8-3-2.2-1.3-1.3-2-3.1-0.7-1.7-0.7-3.7 0-2 0.7-3.7 0.7-1.8 2-3.1 1.3-1.4 3-2.2 1.8-0.8 4-0.8 2.2 0 4 0.8 1.8 0.8 3 2.2 1.3 1.3 2 3.1 0.7 1.7 0.7 3.7 0 2-0.7 3.7-0.7 1.8-2 3.1-1.2 1.4-3 2.2-1.8 0.8-4 0.8zm-5.6-9.8q0 1.8 0.8 3.3 0.7 1.4 2 2.2 1.2 0.9 2.8 0.9 1.6 0 2.8-0.9 1.3-0.8 2.1-2.3 0.7-1.4 0.7-3.2 0-1.8-0.7-3.2-0.8-1.5-2.1-2.3-1.2-0.9-2.8-0.9-1.6 0-2.8 0.9-1.3 0.9-2 2.3-0.8 1.4-0.8 3.2zm32.8 9.4h-4v-15.3h-2.5v-3.1h2.5v-0.7q0-2.3 0.7-4 0.8-1.7 2.1-2.6 1.4-0.9 3.2-0.9 1.2 0 2.3 0.3 1.1 0.3 2.1 0.8l-0.9 3q-0.5-0.4-1.3-0.6-0.7-0.2-1.4-0.2-1.3 0-2.1 1.1-0.7 1-0.7 3v0.8h4.8v3.1h-4.8z"/>
					<path id="u" class="s0" aria-label="u"  d="m321.7 193.7v-11.5h4v10.7q0 2.5 0.9 3.8 0.9 1.3 2.7 1.3 1.1 0 2.1-0.5 1.1-0.5 2-1.4 0.9-0.9 1.4-2.2v-11.7h4v14.3q0 0.7 0.2 1 0.3 0.3 0.8 0.3v3.2q-0.6 0.1-1 0.1-0.4 0.1-0.7 0.1-1.1 0-1.8-0.6-0.7-0.6-0.9-1.5v-1.9q-1.3 2-3.3 3.1-2 1.1-4.4 1.1-3 0-4.5-2-1.5-1.9-1.5-5.7z"/>
					<path id="tu" class="s0" aria-label="tu"  d="m353.4 196.9l0.8 3.1q-0.5 0.3-1.2 0.6-0.8 0.3-1.8 0.5-0.9 0.2-1.9 0.2-1.2 0-2.3-0.4-1-0.5-1.7-1.4-0.6-1-0.6-2.5v-11.8h-2.5v-3h2.5v-6.2h4v6.2h4.1v3h-4.1v10.5q0.1 1 0.6 1.5 0.6 0.5 1.4 0.5 0.8 0 1.6-0.3 0.7-0.3 1.1-0.5zm3.4-3.2v-11.5h3.9v10.7q0 2.5 0.9 3.8 1 1.3 2.7 1.3 1.2 0 2.2-0.5 1.1-0.5 2-1.4 0.9-0.9 1.4-2.2v-11.7h4v14.3q0 0.7 0.2 1 0.3 0.3 0.8 0.3v3.2q-0.6 0.1-1 0.1-0.4 0.1-0.7 0.1-1.1 0-1.8-0.6-0.8-0.6-0.9-1.5v-1.9q-1.3 2-3.3 3.1-2 1.1-4.4 1.1-3 0-4.5-2-1.5-1.9-1.5-5.7z"/>
					<path id="r" class="s0" aria-label="r"  d="m389.5 182v3.6q-2.3 0-4.1 1-1.8 1-2.6 2.9v11.5h-3.9v-18.8h3.6v4.2q1-2 2.6-3.1 1.6-1.2 3.4-1.3 0.3 0 0.5 0 0.3 0 0.5 0z"/>
					<path id="o" class="s0" aria-label="o"  d="m400.5 201.4q-2.3 0-4-0.8-1.8-0.8-3.1-2.2-1.3-1.3-1.9-3.1-0.7-1.7-0.7-3.7 0-2 0.7-3.7 0.6-1.8 1.9-3.1 1.3-1.4 3.1-2.2 1.8-0.8 4-0.8 2.2 0 3.9 0.8 1.8 0.8 3.1 2.2 1.3 1.3 2 3.1 0.6 1.7 0.6 3.7 0 2-0.6 3.7-0.7 1.8-2 3.1-1.3 1.4-3.1 2.2-1.7 0.8-3.9 0.8zm-5.6-9.8q0 1.8 0.7 3.3 0.8 1.4 2 2.2 1.3 0.9 2.9 0.9 1.5 0 2.8-0.9 1.3-0.8 2-2.3 0.8-1.4 0.8-3.2 0-1.8-0.8-3.2-0.7-1.5-2-2.3-1.3-0.9-2.8-0.9-1.6 0-2.9 0.9-1.2 0.9-2 2.3-0.7 1.4-0.7 3.2z"/>
				</g>
			</g>
			<g>
				<path fill-rule="evenodd" class="s0" d="m353.9 47.3c0 27.3-21.5 46.1-57.8 46.1h-8.1v37.8h-65.2l-17.3-63.7 18.3-67.5 31.1 114.6v-114.6h41.2c38.2 0 57.8 19.9 57.8 47.3zm-31.9-0.6c0-12.2-8.9-18.9-21.7-18.9h-12.3v37.8h12.3c12.7 0 21.6-6.7 21.7-18.9z"/>
				<path fill-rule="evenodd" class="s0" d="m92.9 118.2c-7.7 7.9-20.3 13.1-38 13.2h-54.9v-131.3h52.6c30.7 0 46.5 15.5 46.5 35.5 0 8.8-3.3 23.1-15.2 30 9.8 4.5 15.6 11.8 17.6 20.8l-8.6 31.7zm-59.9-64.8h18.2c11.1 0 16.5-5.8 16.5-12.8 0-7.1-5.5-12.7-16.2-12.7h-18.5c0 0 0 25.5 0 25.5zm36.9 36.5c0-8.1-6.5-13.6-17.5-13.6h-19.3v27.1h19c11.7 0 17.7-5.8 17.8-13.5z"/>
				<path class="s1" d="m89.4 131.3h36.6l35.6-131.3h-36.6l-35.6 131.3z"/>
				<path class="s0" d="m161.6 0.1l-18.4 67.6 12.9 47.4 18.3-67.6-12.8-47.4z"/>
				<path class="s2" d="m156.1 115.1h36.6l31.1-115.1h-36.6l-31.1 115.1z"/>
			</g>
		</g>
	</g>
</svg>